<?xml version="1.0" standalone="no"?>
<!DOCTYPE svg PUBLIC "-//W3C//DTD SVG 20010904//EN"
 "http://www.w3.org/TR/2001/REC-SVG-20010904/DTD/svg10.dtd">
<svg version="1.0" xmlns="http://www.w3.org/2000/svg"
 width="512.000000pt" height="512.000000pt" viewBox="0 0 512.000000 512.000000"
 preserveAspectRatio="xMidYMid meet">

<g transform="translate(0.000000,512.000000) scale(0.100000,-0.100000)"
fill="#000000" stroke="none">
<path d="M1589 4776 c-185 -50 -319 -248 -390 -578 -25 -112 -38 -430 -21
-491 14 -49 8 -62 -31 -78 -61 -25 -209 -132 -276 -199 -163 -162 -246 -347
-272 -601 -22 -206 8 -367 102 -550 27 -52 49 -99 49 -104 0 -5 -30 -40 -67
-80 -38 -39 -85 -92 -106 -117 -35 -45 -54 -56 -215 -131 -24 -11 -38 -47 -28
-72 3 -9 26 -25 51 -36 53 -23 53 -22 -24 -118 -70 -87 -67 -116 13 -123 l38
-3 38 -117 c44 -135 89 -228 159 -331 207 -306 602 -543 1085 -651 264 -59
908 -95 1185 -66 161 17 521 79 640 111 352 93 641 247 846 453 146 145 233
282 305 481 30 82 34 103 38 230 3 110 0 153 -13 200 -24 89 -25 87 25 106 86
32 113 115 60 189 -31 44 -57 39 -80 -14 -10 -25 -27 -46 -37 -48 -53 -11
-166 42 -218 104 -43 50 -42 72 3 162 63 124 83 209 89 368 6 148 -10 282 -49
408 -73 235 -246 425 -493 541 l-83 39 -6 102 c-3 57 -8 175 -12 263 -6 167
-28 289 -74 406 -60 151 -158 273 -264 324 -118 57 -265 31 -347 -62 -74 -85
-115 -231 -105 -383 5 -78 3 -100 -10 -118 -16 -23 -83 -62 -107 -62 -8 0 -33
23 -57 51 -55 65 -123 99 -202 99 -66 0 -82 12 -99 72 -16 60 -72 143 -116
172 -81 53 -164 56 -256 9 -57 -28 -103 -94 -148 -213 -31 -82 -75 -134 -108
-128 -14 3 -16 23 -17 143 -1 114 -5 152 -22 205 -43 131 -126 216 -233 239
-61 13 -82 13 -140 -3z m143 -286 c34 -69 50 -155 51 -268 1 -86 -9 -228 -19
-288 -3 -17 -1 -50 6 -73 12 -45 36 -61 90 -61 16 0 32 -4 35 -10 3 -5 33 -10
65 -10 72 0 151 29 202 73 89 79 210 327 225 463 6 51 12 69 23 69 32 0 46
-74 55 -290 1 -44 3 -88 4 -97 1 -23 57 -51 86 -44 13 3 37 28 56 58 55 85 88
118 119 118 35 0 47 -15 60 -76 8 -41 6 -61 -11 -124 -32 -116 -35 -161 -9
-187 27 -30 87 -31 124 -2 36 28 74 96 82 146 8 52 16 59 79 67 28 3 59 7 70
8 18 3 21 -4 25 -56 4 -48 10 -62 33 -82 44 -38 85 -32 139 19 42 39 47 49 68
137 31 131 53 440 37 528 -7 41 -6 42 19 42 19 0 40 -13 67 -42 42 -44 115
-185 122 -234 2 -16 8 -51 13 -77 14 -71 15 -266 2 -355 l-12 -77 -66 -1 c-79
-2 -277 -35 -380 -64 -137 -38 -323 -138 -420 -225 -87 -79 -167 -196 -202
-299 l-17 -51 -63 -8 c-75 -9 -72 -12 -131 102 -46 87 -172 241 -245 297 -145
112 -304 176 -498 201 -57 8 -58 9 -72 48 -9 27 -12 59 -8 97 6 56 5 59 -27
90 -19 18 -47 43 -62 55 -32 27 -35 60 -11 166 35 153 84 247 173 330 67 63
87 61 123 -13z m-52 -1005 c90 -19 157 -47 243 -102 93 -59 151 -115 209 -202
63 -92 90 -153 118 -265 30 -120 25 -293 -11 -405 -25 -77 -49 -104 -49 -56 0
27 -20 115 -26 115 -2 0 -20 -12 -41 -26 -117 -80 -244 86 -143 187 l28 28
-34 7 c-103 19 -210 -63 -260 -201 -27 -75 -25 -261 3 -332 26 -65 83 -144
117 -163 14 -7 26 -17 26 -20 0 -9 -103 -55 -160 -71 -74 -21 -252 -16 -343 9
-262 74 -467 283 -539 549 -24 90 -28 275 -9 358 31 133 97 261 189 364 56 65
184 154 271 190 120 50 278 64 411 36z m2086 0 c246 -58 459 -259 540 -510 36
-109 44 -285 20 -405 -48 -235 -209 -438 -429 -540 -179 -84 -400 -85 -576 -4
l-55 25 36 29 c49 41 94 114 113 185 18 69 20 192 4 265 l-11 50 -29 -24 c-41
-35 -82 -41 -127 -19 -75 37 -92 135 -33 194 27 27 27 28 7 33 -69 19 -143
-10 -204 -79 -40 -45 -56 -85 -90 -215 l-9 -35 -12 30 c-59 145 -58 361 1 540
74 222 294 423 526 480 76 18 252 18 328 0z m-1112 -787 c28 -274 87 -441 213
-605 120 -156 310 -273 518 -318 44 -10 89 -26 100 -36 11 -10 43 -28 70 -41
67 -30 267 -37 400 -14 179 30 378 102 434 156 23 23 24 23 39 4 58 -76 89
-217 72 -335 -13 -93 -43 -164 -112 -269 -138 -211 -335 -368 -588 -469 -81
-32 -235 -54 -604 -86 -164 -14 -189 -19 -287 -55 -137 -50 -236 -70 -344 -70
-148 0 -320 48 -446 124 -36 21 -90 42 -150 55 -326 76 -590 193 -781 346
-158 127 -234 239 -271 400 -25 107 -27 235 -4 235 8 0 42 -12 78 -26 337
-138 715 -93 929 111 36 34 104 88 152 119 233 152 381 417 405 727 l6 77 66
15 c104 23 98 25 105 -45z m-807 -216 c6 -4 15 -21 19 -37 4 -17 18 -46 31
-65 28 -42 29 -54 3 -80 -27 -27 -52 -25 -89 6 -29 24 -31 31 -31 89 0 79 26
113 67 87z m1240 -4 c6 -7 15 -28 21 -46 6 -18 20 -45 32 -59 26 -33 25 -58
-2 -77 -32 -23 -53 -20 -89 12 -30 27 -32 33 -32 92 1 49 5 67 19 77 22 16 39
17 51 1z"/>
<path d="M2373 3955 c-41 -17 -58 -66 -38 -106 29 -55 73 -63 116 -20 34 34
37 68 9 103 -25 32 -49 39 -87 23z"/>
<path d="M2574 3893 c-13 -16 -44 -53 -70 -83 -26 -30 -68 -68 -93 -84 -56
-36 -70 -53 -71 -88 0 -57 56 -80 149 -62 79 16 201 176 201 264 0 78 -68 108
-116 53z"/>
<path d="M2679 3691 c-37 -37 -38 -79 -3 -120 34 -41 75 -42 115 -2 20 20 29
39 29 61 0 40 -47 90 -85 90 -16 0 -38 -12 -56 -29z"/>
<path d="M2420 1920 c-79 -12 -163 -46 -190 -75 -37 -40 -40 -135 -7 -201 28
-55 129 -169 198 -224 l46 -37 -18 -48 c-23 -62 -80 -120 -138 -142 -66 -26
-183 -23 -237 5 -55 28 -101 82 -114 134 -6 24 -13 50 -16 59 -5 19 12 35 48
44 42 11 53 29 37 66 -23 56 -149 93 -234 70 -82 -22 -139 -119 -102 -175 9
-14 32 -28 54 -33 35 -8 39 -13 63 -79 57 -152 139 -230 277 -259 37 -8 87
-15 109 -15 44 0 54 -10 54 -57 0 -40 29 -90 60 -103 20 -8 94 -11 243 -8 200
3 218 4 244 24 44 33 71 80 78 138 l7 53 93 5 c77 4 104 11 159 36 36 17 81
42 99 56 19 15 41 26 51 26 55 0 136 131 136 222 0 38 4 48 21 53 11 4 27 22
36 40 15 32 15 37 -2 76 -18 39 -73 93 -122 118 -12 6 -48 14 -81 17 -51 6
-63 3 -98 -19 -73 -46 -109 -102 -93 -144 10 -28 52 -39 85 -24 39 17 47 5 42
-64 -13 -154 -114 -239 -285 -238 -59 1 -84 6 -138 31 -63 30 -129 88 -141
125 -4 13 15 40 68 95 86 91 146 202 155 284 5 48 3 55 -23 81 -35 36 -74 56
-139 74 -65 17 -215 24 -285 13z m315 -821 c63 -26 73 -44 55 -108 -12 -47
-48 -71 -103 -71 -45 0 -57 15 -57 71 0 83 -28 123 -66 95 -13 -10 -19 -33
-23 -87 l-6 -74 -57 -8 c-78 -11 -135 5 -149 41 -18 47 -4 68 70 107 41 22 90
58 118 88 l48 52 57 -41 c31 -23 82 -52 113 -65z"/>
</g>
</svg>
